<mxfile host="app.diagrams.net" modified="2023-10-19T00:26:26.246Z" agent="Mozilla/5.0 (Windows NT 10.0; Win64; x64) AppleWebKit/537.36 (KHTML, like Gecko) Chrome/118.0.0.0 Safari/537.36" etag="fhLhhS-Tnkp7dgwVxPGD" version="22.0.4" type="google">
  <diagram name="PÃ¡gina-1" id="arfvA-MKcDv-QT4VsI5G">
    <mxGraphModel dx="765" dy="388" grid="1" gridSize="6" guides="1" tooltips="1" connect="1" arrows="1" fold="1" page="1" pageScale="1" pageWidth="827" pageHeight="1169" math="0" shadow="0">
      <root>
        <mxCell id="0" />
        <mxCell id="1" parent="0" />
        <mxCell id="0ogRW3JTptqGu8qy4RhU-2" value="AparelhoTelefonico" style="swimlane;fontStyle=1;align=center;verticalAlign=top;childLayout=stackLayout;horizontal=1;startSize=26;horizontalStack=0;resizeParent=1;resizeParentMax=0;resizeLast=0;collapsible=1;marginBottom=0;whiteSpace=wrap;html=1;" parent="1" vertex="1">
          <mxGeometry x="150" y="180" width="160" height="144" as="geometry" />
        </mxCell>
        <mxCell id="0ogRW3JTptqGu8qy4RhU-4" value="" style="line;strokeWidth=1;fillColor=none;align=left;verticalAlign=middle;spacingTop=-1;spacingLeft=3;spacingRight=3;rotatable=0;labelPosition=right;points=[];portConstraint=eastwest;strokeColor=inherit;" parent="0ogRW3JTptqGu8qy4RhU-2" vertex="1">
          <mxGeometry y="26" width="160" height="8" as="geometry" />
        </mxCell>
        <mxCell id="0ogRW3JTptqGu8qy4RhU-5" value="+ method(type): type&lt;br&gt;+ ligar(numero: String): void&lt;br style=&quot;border-color: var(--border-color);&quot;&gt;+ atender(numero: String):&lt;br style=&quot;border-color: var(--border-color);&quot;&gt;void&lt;br style=&quot;border-color: var(--border-color);&quot;&gt;+ iniciarCorreioVoz(numero:&lt;br style=&quot;border-color: var(--border-color);&quot;&gt;String): void" style="text;strokeColor=none;fillColor=none;align=left;verticalAlign=top;spacingLeft=4;spacingRight=4;overflow=hidden;rotatable=0;points=[[0,0.5],[1,0.5]];portConstraint=eastwest;whiteSpace=wrap;html=1;" parent="0ogRW3JTptqGu8qy4RhU-2" vertex="1">
          <mxGeometry y="34" width="160" height="110" as="geometry" />
        </mxCell>
        <mxCell id="0ogRW3JTptqGu8qy4RhU-6" value="ReprodutorMusical" style="swimlane;fontStyle=1;align=center;verticalAlign=top;childLayout=stackLayout;horizontal=1;startSize=26;horizontalStack=0;resizeParent=1;resizeParentMax=0;resizeLast=0;collapsible=1;marginBottom=0;whiteSpace=wrap;html=1;" parent="1" vertex="1">
          <mxGeometry x="370" y="180" width="160" height="144" as="geometry" />
        </mxCell>
        <mxCell id="0ogRW3JTptqGu8qy4RhU-8" value="" style="line;strokeWidth=1;fillColor=none;align=left;verticalAlign=middle;spacingTop=-1;spacingLeft=3;spacingRight=3;rotatable=0;labelPosition=right;points=[];portConstraint=eastwest;strokeColor=inherit;" parent="0ogRW3JTptqGu8qy4RhU-6" vertex="1">
          <mxGeometry y="26" width="160" height="8" as="geometry" />
        </mxCell>
        <mxCell id="0ogRW3JTptqGu8qy4RhU-9" value="+ tocar(): void&lt;br/&gt;+ pausar(): void&lt;br/&gt;&lt;br&gt;+ selecionarMusica(): void" style="text;strokeColor=none;fillColor=none;align=left;verticalAlign=top;spacingLeft=4;spacingRight=4;overflow=hidden;rotatable=0;points=[[0,0.5],[1,0.5]];portConstraint=eastwest;whiteSpace=wrap;html=1;" parent="0ogRW3JTptqGu8qy4RhU-6" vertex="1">
          <mxGeometry y="34" width="160" height="110" as="geometry" />
        </mxCell>
        <mxCell id="0ogRW3JTptqGu8qy4RhU-10" value="NavegadorInternet" style="swimlane;fontStyle=1;align=center;verticalAlign=top;childLayout=stackLayout;horizontal=1;startSize=26;horizontalStack=0;resizeParent=1;resizeParentMax=0;resizeLast=0;collapsible=1;marginBottom=0;whiteSpace=wrap;html=1;" parent="1" vertex="1">
          <mxGeometry x="580" y="180" width="160" height="144" as="geometry" />
        </mxCell>
        <mxCell id="0ogRW3JTptqGu8qy4RhU-12" value="" style="line;strokeWidth=1;fillColor=none;align=left;verticalAlign=middle;spacingTop=-1;spacingLeft=3;spacingRight=3;rotatable=0;labelPosition=right;points=[];portConstraint=eastwest;strokeColor=inherit;" parent="0ogRW3JTptqGu8qy4RhU-10" vertex="1">
          <mxGeometry y="26" width="160" height="8" as="geometry" />
        </mxCell>
        <mxCell id="0ogRW3JTptqGu8qy4RhU-13" value="+ exibirPagina(url: String):&lt;br/&gt;void&lt;br/&gt;&lt;br&gt;+ adicionarNovaAba(url:&lt;br/&gt;String): void&lt;br/&gt;&lt;br&gt;+ atualizarPagina(): void" style="text;strokeColor=none;fillColor=none;align=left;verticalAlign=top;spacingLeft=4;spacingRight=4;overflow=hidden;rotatable=0;points=[[0,0.5],[1,0.5]];portConstraint=eastwest;whiteSpace=wrap;html=1;" parent="0ogRW3JTptqGu8qy4RhU-10" vertex="1">
          <mxGeometry y="34" width="160" height="110" as="geometry" />
        </mxCell>
        <mxCell id="0ogRW3JTptqGu8qy4RhU-18" style="edgeStyle=orthogonalEdgeStyle;rounded=0;orthogonalLoop=1;jettySize=auto;html=1;exitX=0;exitY=0;exitDx=0;exitDy=0;" parent="1" source="0ogRW3JTptqGu8qy4RhU-14" edge="1">
          <mxGeometry relative="1" as="geometry">
            <mxPoint x="230" y="360" as="targetPoint" />
          </mxGeometry>
        </mxCell>
        <mxCell id="0ogRW3JTptqGu8qy4RhU-14" value="Iphone" style="swimlane;fontStyle=1;align=center;verticalAlign=top;childLayout=stackLayout;horizontal=1;startSize=26;horizontalStack=0;resizeParent=1;resizeParentMax=0;resizeLast=0;collapsible=1;marginBottom=0;whiteSpace=wrap;html=1;" parent="1" vertex="1">
          <mxGeometry x="360" y="490" width="150" height="274" as="geometry" />
        </mxCell>
        <mxCell id="0ogRW3JTptqGu8qy4RhU-16" value="" style="line;strokeWidth=1;fillColor=none;align=left;verticalAlign=middle;spacingTop=-1;spacingLeft=3;spacingRight=3;rotatable=0;labelPosition=right;points=[];portConstraint=eastwest;strokeColor=inherit;" parent="0ogRW3JTptqGu8qy4RhU-14" vertex="1">
          <mxGeometry y="26" width="150" height="8" as="geometry" />
        </mxCell>
        <mxCell id="0ogRW3JTptqGu8qy4RhU-17" value="+ ligar(numero: String): void&lt;br/&gt;+ atender(numero: String):&lt;br/&gt;void&lt;br/&gt;+ iniciarCorreioVoz(numero:&lt;br/&gt;String): void&lt;br/&gt;+ selecionarMusica(): void&lt;br/&gt;+ pausar(): void&lt;br/&gt;+ tocar(): void&lt;br/&gt;+ atualizarPagina(): void&lt;br/&gt;+ adicionarNovaAba(url:&lt;br/&gt;String): void&lt;br/&gt;+ exib" style="text;strokeColor=none;fillColor=none;align=left;verticalAlign=top;spacingLeft=4;spacingRight=4;overflow=hidden;rotatable=0;points=[[0,0.5],[1,0.5]];portConstraint=eastwest;whiteSpace=wrap;html=1;" parent="0ogRW3JTptqGu8qy4RhU-14" vertex="1">
          <mxGeometry y="34" width="150" height="240" as="geometry" />
        </mxCell>
        <mxCell id="0ogRW3JTptqGu8qy4RhU-19" style="edgeStyle=orthogonalEdgeStyle;rounded=0;orthogonalLoop=1;jettySize=auto;html=1;exitX=1;exitY=0;exitDx=0;exitDy=0;entryX=0.525;entryY=1.009;entryDx=0;entryDy=0;entryPerimeter=0;" parent="1" source="0ogRW3JTptqGu8qy4RhU-14" target="0ogRW3JTptqGu8qy4RhU-13" edge="1">
          <mxGeometry relative="1" as="geometry" />
        </mxCell>
        <mxCell id="0ogRW3JTptqGu8qy4RhU-20" style="edgeStyle=orthogonalEdgeStyle;rounded=0;orthogonalLoop=1;jettySize=auto;html=1;exitX=0.5;exitY=0;exitDx=0;exitDy=0;entryX=0.494;entryY=1;entryDx=0;entryDy=0;entryPerimeter=0;" parent="1" source="0ogRW3JTptqGu8qy4RhU-14" target="0ogRW3JTptqGu8qy4RhU-9" edge="1">
          <mxGeometry relative="1" as="geometry" />
        </mxCell>
      </root>
    </mxGraphModel>
  </diagram>
</mxfile>
